<svg xmlns="http://www.w3.org/2000/svg" width="1400" height="900" viewBox="0 0 1400 900">
<rect width="1400" height="900" fill="white"/><g font-family="monospace" fill="#172230">
<text x="40" y="48" font-size="25">A0-D001-R0 — FIXTURE DATUM AND ROOT INTERFACE</text><text x="40" y="78" font-size="15">FRAME_T56_THORAX: +X right, +Y anterior, +Z superior; origin at Ø6 H7 tooling-hole axis, plate top Z=0</text>
<rect x="25" y="20" width="1350" height="850" fill="none" stroke="#172230" stroke-width="2"/><rect x="170" y="160" width="750" height="600" fill="#eef2f3" stroke="#172230" stroke-width="3"/>
<line x1="845" y1="440" x2="1060" y2="440" stroke="#bf4b3f" stroke-width="3"/><text x="1070" y="446" font-size="17">+X</text>
<line x1="845" y1="440" x2="845" y2="235" stroke="#2f7c5d" stroke-width="3"/><text x="830" y="220" font-size="17">+Y</text>
<circle cx="845" cy="440" r="9" fill="none" stroke="#172230" stroke-width="3"/><text x="870" y="425" font-size="15">ORIGIN Ø6 H7</text>
<g fill="none" stroke="#172230" stroke-width="3"><circle cx="245" cy="665" r="14"/><circle cx="245" cy="215" r="14"/><circle cx="845" cy="665" r="14"/><circle cx="845" cy="215" r="14"/></g>
<g fill="#156f88"><circle cx="520" cy="590" r="12"/><circle cx="520" cy="340" r="12"/></g>
<text x="955" y="175" font-size="16">PLATE: A36 300 × 240 × 8</text><text x="955" y="205" font-size="16">BENCH: 4× Ø11 THRU</text>
<text x="955" y="235" font-size="16">ROOTS: 2× Ø10.5 THRU</text><text x="955" y="265" font-size="16">ROOT HEIGHT: Z=35 ±0.25</text>
<text x="955" y="310" font-size="15">P = (-130,-60,35) ±0.25</text><text x="955" y="340" font-size="15">A = (-130, 40,35) ±0.25</text>
<text x="955" y="390" font-size="15">BENCH HOLES:</text><text x="955" y="420" font-size="14">(-250,±90), (-10,±90)</text>
<text x="955" y="470" font-size="15">DATUM: TRUE POSITION 0.25</text><text x="955" y="500" font-size="15">FLATNESS: 0.30 OVER PLATE</text>
<text x="955" y="550" font-size="14">PET barrier + zinc-rich primer</text><text x="955" y="575" font-size="14">at aluminum/steel interfaces.</text>
<text x="40" y="842" font-size="14">A0 SHOP REVIEW CANDIDATE — NOT FABRICATION RELEASED — ALL DIMENSIONS mm — DO NOT SCALE</text>
</g></svg>
